<svg xmlns="http://www.w3.org/2000/svg" width="933.333" height="933.333" preserveAspectRatio="xMidYMid meet" version="1.0" viewBox="0 0 700 700"><metadata>Created by potrace 1.14, written by Peter Selinger 2001-2017</metadata><g fill="#000" stroke="none"><path d="M3430 6554 l0 -104 -42 -1 c-44 -1 -60 -2 -183 -13 -97 -9 -153 -16 -203 -27 -23 -5 -59 -12 -80 -15 -20 -3 -55 -10 -77 -16 -22 -5 -47 -11 -56 -13 -35 -7 -170 -48 -269 -82 -207 -71 -460 -196 -640 -316 -77 -52 -225 -161 -248 -184 -17 -17 -9 -18 -131 21 -94 31 -315 91 -374 102 -21 4 -39 7 -102 20 -16 3 -38 8 -48 11 -20 5 -20 2 13 -157 27 -124 60 -251 100 -375 18 -55 34 -109 37 -120 3 -14 -23 -62 -79 -145 -286 -430 -449 -902 -492 -1425 -2 -27 -5 -71 -5 -97 l-1 -48 -103 0 -103 0 -1 -70 -1 -70 104 0 104 0 1 -42 c2 -74 16 -240 24 -288 3 -14 7 -41 10 -60 3 -19 7 -46 10 -60 3 -14 7 -40 10 -58 3 -18 21 -92 39 -165 95 -369 264 -718 497 -1028 80 -105 258 -312 276 -321 5 -2 18 -15 31 -29 19 -21 21 -31 13 -45 -12 -22 -272 -654 -275 -669 -1 -5 -5 -16 -10 -23 -14 -23 0 -23 95 2 52 14 148 39 214 56 216 57 418 110 542 141 l122 31 148 -65 c296 -132 624 -219 908 -243 44 -4 91 -8 105 -9 14 -2 46 -3 73 -4 l47 -1 0 -104 0 -104 70 1 70 1 0 103 0 103 38 1 c270 9 563 62 827 151 169 56 237 85 413 174 67 34 122 57 122 51 0 -7 116 -128 258 -270 l258 -258 194 196 c107 107 199 195 204 195 4 0 28 -20 52 -45 23 -25 45 -45 49 -45 3 0 46 40 95 89 l90 89 -51 52 -52 52 187 186 c102 103 189 191 193 195 4 4 -104 119 -241 256 l-247 247 49 80 c162 261 284 552 356 847 19 78 38 160 41 182 3 23 8 52 10 65 14 66 31 249 34 347 l1 42 103 3 102 3 0 68 1 67 -103 0 -103 0 -1 38 c0 20 -2 55 -4 77 -2 22 -7 74 -10 115 -3 41 -8 82 -10 90 -2 8 -6 35 -9 60 -6 46 -7 52 -27 150 -66 337 -218 706 -416 1010 -49 74 -158 226 -173 240 -3 3 -30 34 -59 70 -133 159 -403 401 -568 510 -29 19 -53 38 -53 41 0 3 35 43 79 90 43 46 98 106 123 133 l44 49 -55 51 c-63 58 -71 66 -171 160 l-73 69 -61 -64 c-34 -36 -106 -114 -161 -173 l-101 -108 -89 37 c-50 21 -103 44 -120 50 -82 35 -353 111 -455 129 -19 3 -46 8 -60 11 -101 21 -299 42 -407 44 l-43 1 0 104 0 103 -70 0 -70 0 0 -103z m0 -1017 l0 -774 -37 -42 -38 -41 -50 46 c-27 26 -70 65 -95 88 -116 107 -352 290 -540 417 -249 170 -610 365 -833 451 l-78 30 86 64 c47 35 88 64 91 64 3 0 25 13 48 29 105 72 379 211 516 262 288 106 591 169 853 177 l77 3 0 -774z m405 758 c22 -3 56 -8 75 -11 19 -3 46 -8 60 -10 27 -5 119 -22 160 -30 66 -13 276 -78 370 -114 58 -23 113 -44 123 -47 29 -9 39 4 -177 -227 -61 -65 -116 -124 -121 -130 -6 -6 -66 -72 -135 -146 -68 -74 -152 -164 -186 -200 -34 -36 -74 -78 -89 -95 -72 -79 -217 -235 -277 -299 l-68 -71 0 699 0 699 113 -7 c61 -4 130 -9 152 -11z m1285 -495 c3 -3 23 -17 45 -32 136 -92 361 -305 506 -478 95 -113 250 -343 307 -455 70 -139 102 -205 102 -210 0 -3 8 -25 19 -48 113 -256 202 -649 210 -935 l2 -72 -727 0 c-580 0 -724 3 -716 13 6 6 37 34 70 62 34 27 59 52 57 55 -2 4 -191 6 -421 6 l-416 -1 -71 105 c-115 173 -280 387 -415 542 -13 14 -25 29 -25 31 -1 3 43 54 98 113 55 59 107 115 115 124 8 10 62 68 120 130 58 62 119 127 135 144 17 18 77 84 135 146 58 62 116 124 129 139 13 14 54 58 90 97 94 100 283 303 315 339 15 17 75 81 133 142 l105 113 47 -33 c25 -17 48 -34 51 -37z m-3858 -855 c116 -268 348 -657 561 -940 93 -124 277 -345 317 -380 12 -11 26 -28 31 -37 9 -17 -27 -18 -737 -18 l-747 0 7 118 c3 64 8 128 11 141 2 14 7 45 10 70 3 25 7 57 10 71 3 14 8 39 10 55 7 46 62 263 83 330 69 214 169 430 286 620 93 150 86 144 109 88 10 -26 33 -79 49 -118z m902 -1547 c-16 -18 -32 -34 -36 -36 -3 -2 -18 -18 -31 -36 l-25 -32 196 0 197 1 105 -91 c187 -162 336 -274 553 -418 64 -43 117 -80 117 -81 0 -2 -28 -26 -62 -55 -63 -53 -174 -149 -212 -185 -12 -11 -51 -45 -86 -75 -36 -30 -67 -57 -70 -60 -13 -14 -111 -100 -159 -140 -30 -25 -61 -52 -70 -61 -9 -8 -72 -64 -141 -124 -69 -59 -154 -134 -190 -165 -108 -95 -334 -293 -351 -307 -14 -12 -22 12 -79 229 -34 134 -66 249 -69 256 -4 7 -21 -23 -40 -70 -19 -46 -56 -137 -83 -203 -27 -66 -52 -129 -57 -140 -4 -11 -17 -40 -28 -64 l-19 -44 -66 69 c-284 300 -500 662 -633 1059 -36 107 -78 274 -90 362 -4 21 -8 45 -10 53 -2 8 -7 38 -10 65 -4 28 -8 61 -11 75 -2 14 -7 76 -10 138 l-7 112 753 0 754 0 -30 -32z m4142 -80 c-3 -62 -8 -122 -10 -133 -2 -11 -7 -47 -10 -80 -31 -274 -153 -648 -304 -930 -65 -121 -197 -324 -214 -329 -7 -2 -60 -14 -117 -26 l-103 -22 -54 53 -54 53 45 46 45 45 -23 25 c-12 14 -34 35 -48 47 l-25 23 -46 -44 -46 -43 -48 48 -48 49 44 45 44 45 -44 45 c-25 24 -48 45 -52 45 -5 0 -27 -19 -49 -41 l-41 -41 -260 258 c-149 150 -261 270 -265 284 -9 34 -114 300 -152 382 -31 67 -38 98 -23 98 4 0 18 10 32 23 14 12 67 59 119 105 l94 82 810 0 810 0 -7 -112z m-2607 -858 c68 -33 274 -120 333 -141 27 -9 117 -93 334 -310 l297 -297 -57 -55 -58 -55 46 -46 c24 -25 48 -46 53 -46 4 0 31 23 60 52 l53 52 45 -44 c25 -24 45 -48 45 -53 0 -6 -23 -32 -51 -60 l-51 -50 48 -48 48 -49 56 55 56 55 51 -52 52 -53 -19 -85 c-11 -47 -20 -88 -20 -92 0 -11 -187 -118 -313 -178 -172 -82 -394 -163 -509 -185 -10 -2 -21 -6 -26 -8 -9 -6 -281 -55 -342 -62 -25 -3 -93 -8 -152 -11 l-108 -7 0 878 0 879 22 23 c27 29 32 29 107 -7z m-269 -956 l0 -816 -112 6 c-62 3 -122 8 -133 10 -11 2 -47 7 -80 10 -33 4 -67 9 -75 11 -8 2 -31 7 -50 10 -165 28 -418 104 -589 178 l-33 14 78 21 c44 12 109 29 147 39 37 9 61 20 55 24 -7 4 -110 46 -228 94 -265 107 -259 104 -237 120 9 6 49 41 89 77 40 36 91 80 113 99 22 19 42 36 45 39 3 3 25 23 50 44 25 21 74 65 110 96 36 32 108 95 160 140 52 45 111 97 130 114 19 17 107 94 195 170 88 77 165 144 170 150 6 6 42 38 80 71 39 33 79 68 89 78 11 9 21 17 23 17 2 0 3 -367 3 -816z" transform="translate(0.000000,700.000000) scale(0.100000,-0.100000)"/></g></svg>